<svg width="70" height="46" viewBox="0 0 70 46" fill="none" xmlns="http://www.w3.org/2000/svg">
<path fill-rule="evenodd" clip-rule="evenodd" d="M15.0028 0.346605C14.8122 0.537202 14.6562 0.784837 14.6562 0.897077C14.6562 1.06438 14.2321 1.11139 12.2914 1.15925C9.63559 1.22476 9.03316 1.37894 7.7498 2.32105C6.34136 3.35494 6.20978 3.6606 2.93122 13.5067C0.109959 21.9794 -0.0576255 22.5416 0.0111307 23.2996C0.150902 24.8415 1.02398 26.1186 2.3607 26.7368C2.96002 27.0141 3.28714 27.0398 6.72622 27.0805C10.6714 27.1271 10.9883 27.0816 11.1804 26.4404C11.2218 26.3023 11.6724 23.0555 12.1821 19.2252C12.6916 15.3949 13.1933 12.0585 13.2966 11.8108C13.4001 11.5633 13.7324 11.1432 14.0351 10.877L14.5856 10.3932L14.682 12.997C14.8458 17.4169 15.3144 23.0727 15.7259 25.5995C15.8133 26.1355 15.8173 26.1384 16.3645 26.0583C18.2058 25.7887 18.0677 25.8419 17.9843 25.4344C17.6733 23.9154 17.1438 17.7096 16.9737 13.5889L16.879 11.2947H18.6395H20.4L20.5606 11.8304C20.7926 12.6051 21.6052 13.4789 22.501 13.9171C23.3738 14.3442 23.6919 14.7059 23.6919 15.2714C23.6919 15.7954 23.1941 16.289 22.3611 16.591C21.5447 16.8869 20.6194 17.7608 20.2699 18.5656C19.9847 19.2224 15.9624 37.2338 15.8334 38.4313C15.5145 41.3941 17.7348 44.402 20.6987 45.022C21.7522 45.2424 43.7176 45.2403 44.7566 45.0198C47.7432 44.3856 49.9424 41.4075 49.6219 38.4313C49.4458 36.7973 45.436 19.1538 45.0675 18.3919C44.6531 17.5355 43.9387 16.8944 43.0357 16.5687C41.9106 16.1628 41.4578 15.3233 41.9696 14.5925C42.0831 14.4305 42.5262 14.1266 42.9542 13.9171C44.2351 13.2906 45.1518 11.9249 45.1518 10.6437C45.1518 10.3002 45.227 10.1604 45.4497 10.0897C45.6136 10.0377 46.9516 9.27093 48.423 8.386L51.0984 6.77679H60.2027H69.3069L69.6534 6.43019C69.9972 6.08655 70 6.06184 70 3.3884C70 0.714951 69.9972 0.690245 69.6534 0.346605L69.3069 0H57.0111H44.7154L44.3689 0.346605C44.1783 0.537202 44.0223 0.791332 44.0223 0.911337C44.0223 1.10631 42.8208 1.12947 32.7276 1.12947C22.6345 1.12947 21.433 1.10631 21.433 0.911337C21.433 0.791332 21.277 0.537202 21.0864 0.346605C20.7427 0.00282393 20.718 0 18.0446 0C15.3712 0 15.3464 0.00282393 15.0028 0.346605ZM19.1741 5.64733V9.03572H18.0446H16.9151V5.64733V2.25893H18.0446H19.1741V5.64733ZM60.9643 3.3884V4.51786H55.7257H50.4871L48.3841 5.78357L46.2812 7.04927V4.6541V2.25893H53.6228H60.9643V3.3884ZM67.7411 3.3884V4.51786H65.4821H63.2232V3.3884V2.25893H65.4821H67.7411V3.3884ZM14.6562 5.69194V7.99548L13.8444 8.33122C12.8732 8.73288 11.7436 9.80799 11.3049 10.7481C11.0415 11.3129 10.9271 11.4154 10.4633 11.5022C9.01424 11.7734 7.16008 13.1648 6.40913 14.5445C6.14017 15.0388 5.63177 16.784 4.83974 19.9321C4.19538 22.4933 3.63121 24.6257 3.58603 24.6708C3.54085 24.7159 3.34475 24.6804 3.15006 24.5917C2.71874 24.3952 2.23335 23.6345 2.23265 23.154C2.23194 22.6857 7.94492 5.56163 8.29152 4.99308C8.62754 4.44205 9.40687 3.83821 10.1028 3.58986C10.4471 3.46689 11.3364 3.39856 12.6443 3.39461L14.6562 3.3884V5.69194ZM22.5625 4.51786V5.64733H23.6919H24.8214V4.51786V3.3884H25.9509H27.0803V4.51786V5.64733H28.2098H29.3392V4.51786V3.3884H30.4687H31.5982V4.51786V5.64733H32.7276H33.8571V4.51786V3.3884H34.9866H36.116V4.51786V5.64733H37.2455H38.375V4.51786V3.3884H39.5044H40.6339V4.51786V5.64733H41.7634H42.8928V4.51786V3.3884H43.4576H44.0223V5.64733V7.90626H32.7276H21.433V5.64733V3.3884H21.9977H22.5625V4.51786ZM42.8928 10.5697C42.8928 11.1401 42.449 11.6372 41.4775 12.155C39.8365 13.0297 39.1292 14.7135 39.7107 16.3617C40.0569 17.3427 40.5887 17.8979 41.69 18.4275C42.8513 18.9862 43.1354 19.2488 43.2617 19.8808L43.3517 20.3304H32.7276H22.1036L22.1935 19.8808C22.3199 19.2488 22.604 18.9862 23.7653 18.4275C24.8666 17.8979 25.3984 17.3427 25.7446 16.3617C26.3261 14.7135 25.6188 13.0297 23.9778 12.155C23.0063 11.6372 22.5625 11.1401 22.5625 10.5697V10.1652H32.7276H42.8928V10.5697ZM10.5606 14.083C10.5601 14.219 10.243 16.6808 9.85597 19.5539C9.46899 22.4269 9.15189 24.7936 9.15133 24.8129C9.15062 24.8323 8.42607 24.8482 7.54128 24.8482H5.93249L7.02779 20.4985C7.63022 18.106 8.20568 15.9937 8.30649 15.8042C8.67018 15.1214 9.08539 14.6589 9.70109 14.2512C10.4272 13.7702 10.5623 13.7438 10.5606 14.083ZM43.9294 22.907C43.9727 23.0818 44.7792 26.6871 45.7216 30.9191C47.579 39.2608 47.6027 39.4439 46.9836 40.678C46.5629 41.5172 46.062 42.0278 45.2224 42.474L44.5164 42.8491H32.7276H20.9389L20.3577 42.5382C19.4477 42.0514 18.9078 41.5303 18.5195 40.7641C17.8461 39.435 17.8567 39.3489 19.7337 30.9191C20.6761 26.6871 21.4825 23.0818 21.5259 22.907L21.6048 22.5893H32.7276H43.8505L43.9294 22.907Z" fill="white"/>
<path fill-rule="evenodd" clip-rule="evenodd" d="M36.0406 25.9003C36.4315 25.5087 36.9737 25.118 37.2454 25.0323C38.5594 24.6183 39.7157 24.9085 40.7092 25.9019C41.4404 26.6331 41.7633 27.3482 41.7633 28.2362C41.7633 30.4679 39.2716 32.239 37.2943 31.4128C37.0155 31.2964 36.7663 31.2011 36.7403 31.2011C36.7145 31.2011 36.7903 31.4711 36.9089 31.8011C37.2157 32.655 37.3101 34.2354 37.1115 35.1913C36.845 36.473 36.0925 37.8227 35.1349 38.736C32.4418 41.3047 28.3652 41.2677 25.7517 38.6509C22.846 35.7415 23.1153 31.1274 26.3388 28.5897C28.6871 26.7411 32.1671 26.6839 34.4903 28.456L34.9865 28.8344V28.3047C34.9865 27.3486 35.2929 26.6496 36.0406 25.9003ZM34.5638 31.9776C34.1174 31.0695 33.2671 30.2239 32.3747 29.8005C31.453 29.3631 29.9486 29.2688 29.0576 29.5926C25.1983 30.9949 24.8927 36.1741 28.5627 37.9787C29.1478 38.2664 29.474 38.3252 30.4687 38.3216C31.4856 38.318 31.7787 38.2602 32.3898 37.9435C33.4532 37.3925 33.8966 36.9643 34.4299 35.9732C34.8663 35.1624 34.9086 34.9774 34.9097 33.8835C34.9107 32.8929 34.8504 32.5604 34.5638 31.9776ZM39.1578 27.4537C39.3763 27.6721 39.5044 27.9615 39.5044 28.2365C39.5044 28.5116 39.3763 28.801 39.1578 29.0194C38.9394 29.238 38.65 29.366 38.3749 29.366C38.0999 29.366 37.8105 29.238 37.5921 29.0194C37.3735 28.801 37.2455 28.5116 37.2455 28.2365C37.2455 27.9615 37.3735 27.6721 37.5921 27.4537C37.8105 27.2351 38.0999 27.1071 38.3749 27.1071C38.65 27.1071 38.9394 27.2351 39.1578 27.4537Z" fill="#DB3138"/>
</svg>
