<svg width="70" height="71" viewBox="0 0 70 71" fill="none" xmlns="http://www.w3.org/2000/svg">
<path fill-rule="evenodd" clip-rule="evenodd" d="M45.3829 0.156003C41.1862 0.758318 37.2548 3.48327 35.1009 7.28295C34.7801 7.84881 33.8845 10.0156 33.1106 12.0979L31.7037 15.884H31.1018H30.4998V15.0976C30.4998 14.4516 30.4379 14.2488 30.1535 13.963C29.8248 13.6324 29.7229 13.615 28.1432 13.6164C26.3039 13.6181 23.1997 13.9222 21.702 14.2474C19.9846 14.6204 18.9214 15.4935 18.3648 16.9885C17.6165 18.9974 18.5228 21.2694 20.4521 22.2218C21.2436 22.6127 21.3197 22.6219 24.3056 22.6914L27.3516 22.7623L25.6677 24.8187C23.7705 27.1355 22.8466 28.4474 22.1881 29.7591C21.8264 30.4797 21.6898 30.6362 21.4984 30.5503C21.3671 30.4914 20.72 30.2495 20.0605 30.0126C18.9642 29.6191 18.7041 29.5815 17.0274 29.576C14.9407 29.5689 13.8582 29.8261 12.0899 30.7497C10.7194 31.4653 8.72997 33.463 8.03928 34.8171C6.66636 37.5085 6.45603 40.1984 7.39373 43.07L7.69012 43.9778L5.8521 45.8504C4.84103 46.8803 3.9053 47.9374 3.77269 48.1998C3.40111 48.9341 3.33805 50.0437 3.61963 50.8958L3.86072 51.6256L3.30095 52.5168C1.96401 54.6449 0.977348 57.0616 0.435066 59.5367C0.170979 60.7419 0.125413 61.496 0.0667271 65.6278L0 70.3433H1.12829H2.25673L2.32684 65.6987C2.40133 60.7542 2.45296 60.3075 3.22364 57.934C3.63613 56.6634 4.62336 54.5918 5.25889 53.6633C5.63879 53.1082 5.71159 53.0637 6.03648 53.1878C6.56987 53.3917 7.3682 53.3541 8.15002 53.0885C8.71769 52.8956 9.20115 52.5008 10.786 50.9354L12.7268 49.0184L13.6074 49.3222C14.7168 49.7049 15.9307 49.9211 16.9704 49.9211C17.7411 49.9211 19.5715 49.6282 20.0957 49.421C20.3233 49.3311 20.3427 49.4715 20.345 51.2177C20.3478 53.3234 20.5656 54.6325 21.1137 55.8359L21.4712 56.621V62.012C21.4712 65.8302 21.5213 67.5734 21.6427 67.9868C21.8717 68.7659 23.0403 69.9407 23.8152 70.1709C24.2232 70.292 25.8829 70.3433 29.3977 70.3433C35.2058 70.3433 35.3311 70.3229 36.3259 69.2105C37.1604 68.2776 37.2713 67.7969 37.2713 65.115C37.2713 62.9276 37.2835 62.8268 37.5511 62.8268C37.7051 62.8268 38.8635 62.9208 40.1257 63.0357C44.492 63.4331 48.3918 63.5355 59.1727 63.5356L70 63.5359V62.4141V61.2923L57.3388 61.2272C42.7674 61.1522 40.9669 61.0546 33.0391 59.9108C27.4862 59.1095 26.2751 58.7089 24.706 57.154C23.7063 56.1635 23.1725 55.2236 22.8156 53.8268C22.5649 52.8453 22.5007 48.0774 22.7381 48.0774C23.0186 48.0774 24.8465 46.1987 25.4058 45.3356C26.3932 43.8121 27.1141 41.5759 27.1141 40.0367C27.1141 39.5904 27.1478 39.5457 27.4315 39.6154C28.0299 39.7624 33.5323 40.4108 35.3991 40.5542C36.4255 40.6332 38.5948 40.7406 40.2198 40.7932L43.1741 40.8886L43.6242 40.4362C44.0543 40.0038 44.0698 39.9495 43.9767 39.2011C43.6335 36.4395 42.2876 33.716 40.1734 31.5043C38.9121 30.1848 37.7939 29.3788 36.1156 28.5797C34.0358 27.5892 32.8879 27.357 29.5415 27.2502L26.6789 27.1588L29.4477 23.7562L32.2165 20.3538L33.767 20.1046C37.8584 19.447 44.099 18.7749 49.3329 18.4281C50.652 18.3406 55.8416 18.2358 60.8656 18.195L70 18.1206V16.9851V15.8497L60.7245 15.9244C51.5047 15.9986 48.3766 16.1292 42.9141 16.6678C40.2776 16.9279 36.5361 17.3873 34.8117 17.6628C34.1183 17.7736 33.5202 17.8332 33.4825 17.7952C33.3961 17.7084 36.0125 10.6428 36.6501 9.24107C37.9045 6.48322 40.3028 4.22599 43.1963 3.07979C45.2133 2.28091 45.4306 2.26914 58.236 2.26914H70V1.13457V0L58.1147 0.0173022C51.5778 0.0268042 45.8484 0.0892056 45.3829 0.156003ZM28.2426 16.6704C28.2426 17.3164 28.3046 17.5192 28.589 17.8049C28.8861 18.1038 29.0662 18.1531 29.8586 18.1531C30.5449 18.1531 30.7819 18.2029 30.7819 18.3468C30.7819 18.4534 30.4486 18.9601 30.0413 19.4729L29.3007 20.4054L25.5623 20.4133C22.0724 20.4207 21.7932 20.4024 21.3641 20.1393C20.0959 19.362 20.0276 17.6043 21.2347 16.8092C21.8429 16.4084 24.8899 15.9474 27.2199 15.9033L28.2426 15.884V16.6704ZM33.2951 29.9061C35.3271 30.5124 37.3919 31.7785 38.7263 33.2365C39.9291 34.5508 41.1276 36.7154 41.4271 38.1145L41.5259 38.5754L40.915 38.5732C38.658 38.5657 32.426 38.0584 29.7944 37.668L28.5953 37.4902L29.2301 37.293C30.0623 37.0345 31.2215 35.8847 31.4568 35.0843C31.8476 33.7546 31.5721 32.6945 30.5751 31.6922C29.1441 30.2537 27.342 30.2573 25.8966 31.7014C25.4518 32.1458 25.1336 32.6046 25.0708 32.8919L24.9688 33.3593L24.2839 32.6811L23.599 32.003L24.2492 30.7373L24.8994 29.4717L28.5814 29.535C31.8342 29.5909 32.3834 29.6341 33.2951 29.9061ZM49.7561 29.6307C48.4865 29.9395 47.3122 30.9061 46.729 32.1225C46.3182 32.9793 46.1694 35.2037 46.4363 36.4961C46.9789 39.1237 49.2016 41.3416 51.7863 41.8343C52.2514 41.9231 55.9266 41.9791 61.2727 41.9791H70V40.8445V39.7099H68.8714H67.7428V38.0081V36.3062H68.8714H70V35.1717V34.0371H68.8714H67.7428V32.9025V31.768H68.8714H70V30.6334V29.4988L60.0897 29.5133C54.6391 29.5214 49.9889 29.5741 49.7561 29.6307ZM19.3653 32.1833C21.0284 32.7027 22.8416 34.1253 23.6946 35.5801C25.0866 37.9543 25.1994 40.7129 24.0064 43.2037C22.8145 45.6924 20.3734 47.3673 17.5942 47.6034C16.608 47.6872 14.7718 47.4585 14.6343 47.2347C14.6001 47.1792 14.9659 46.7474 15.4471 46.2751L16.322 45.4165L17.3581 45.3359C19.4098 45.1762 21.0738 44.0325 22.0023 42.1436C22.4996 41.1321 22.5292 40.9958 22.5292 39.7173C22.5292 38.4906 22.487 38.2732 22.0827 37.4153C21.4614 36.0968 20.6617 35.2756 19.3777 34.6377C18.3704 34.1372 18.2371 34.108 16.9569 34.108C15.6766 34.108 15.5433 34.1372 14.5361 34.6377C12.6571 35.5712 11.5195 37.244 11.3607 39.3066L11.2804 40.3481L10.4264 41.2277C9.95659 41.7115 9.52547 42.0782 9.4682 42.0426C9.41106 42.0072 9.28748 41.5203 9.19367 40.9608C8.51624 36.9234 11.2368 32.8988 15.264 31.9807C16.4301 31.7149 18.1345 31.7992 19.3653 32.1833ZM51.9428 32.9025V34.0371H50.2499C48.4107 34.0371 48.4048 34.034 48.7076 33.2308C49.069 32.2718 49.8837 31.782 51.1316 31.7735L51.9428 31.768V32.9025ZM56.4571 32.9025V34.0371H55.3285H54.1999V32.9025V31.768H55.3285H56.4571V32.9025ZM60.9714 32.9025V34.0371H59.8428H58.7142V32.9025V31.768H59.8428H60.9714V32.9025ZM65.4857 32.9025V34.0371H64.3571H63.2285V32.9025V31.768H64.3571H65.4857V32.9025ZM29.0249 33.2507C29.7247 33.9541 29.2289 35.1717 28.2426 35.1717C27.9678 35.1717 27.6786 35.043 27.4604 34.8235C27.242 34.6041 27.1141 34.3134 27.1141 34.0371C27.1141 33.7608 27.242 33.4701 27.4604 33.2507C27.6786 33.0312 27.9678 32.9025 28.2426 32.9025C28.5175 32.9025 28.8066 33.0312 29.0249 33.2507ZM34.0901 33.1021C32.6668 33.7252 32.3306 35.6273 33.4457 36.7484C35.0306 38.3418 37.6279 36.9146 37.2109 34.6794C36.9613 33.3426 35.3736 32.54 34.0901 33.1021ZM18.1029 36.5248C18.4425 36.645 18.9879 37.0073 19.3149 37.3296C20.6209 38.6168 20.6829 40.5663 19.4595 41.8834C19.1305 42.2376 18.9492 42.3616 19.0083 42.1918C19.2429 41.5182 19.2396 40.5695 19 39.8447C18.3979 38.0221 16.3725 37.039 14.4881 37.6547C14.3132 37.7118 14.4311 37.5355 14.7983 37.1909C15.7212 36.3248 16.8793 36.0915 18.1029 36.5248ZM51.9428 37.9336V39.561L51.5891 39.4259C50.8823 39.1557 50.4508 38.8755 49.9189 38.3408C49.3871 37.8061 49.1083 37.3723 48.8396 36.6618L48.7052 36.3062H50.324H51.9428V37.9336ZM56.4571 38.0081V39.7099H55.3285H54.1999V38.0081V36.3062H55.3285H56.4571V38.0081ZM60.9714 38.0081V39.7099H59.8428H58.7142V38.0081V36.3062H59.8428H60.9714V38.0081ZM65.4857 38.0081V39.7099H64.3571H63.2285V38.0081V36.3062H64.3571H65.4857V38.0081ZM16.5445 40.1245C16.8341 40.4158 16.9569 40.6787 16.9569 41.0086C16.9569 41.4362 16.5321 41.9051 12.1934 46.2669C7.85461 50.6286 7.38823 51.0556 6.9629 51.0556C6.3213 51.0556 5.6711 50.402 5.6711 49.757C5.6711 49.3294 6.09587 48.8605 10.4345 44.4987C14.7734 40.137 15.2397 39.7099 15.6651 39.7099C15.9932 39.7099 16.2548 39.8333 16.5445 40.1245ZM35.4802 43.3262C35.3102 43.4459 35.046 43.9386 34.8756 44.4532C34.4127 45.8514 33.7416 46.5174 32.7953 46.5174C32.576 46.5174 32.271 46.6057 32.1176 46.7138C31.8805 46.8807 31.4364 46.8816 29.1589 46.7192C25.5341 46.4606 25.6085 46.4579 25.2032 46.8655L24.8569 47.2136V50.5275C24.8569 54.3789 24.951 54.845 25.9262 55.8254C26.3521 56.2537 26.748 56.4925 27.2797 56.6424C27.785 56.7848 30.8859 57.0233 36.749 57.3705C44.79 57.8466 45.4937 57.8692 45.8106 57.6604C45.9997 57.5359 46.1949 57.2711 46.2447 57.0721C46.379 56.5341 44.0004 48.2266 43.6223 47.9135C43.4275 47.7519 42.9177 47.6468 41.9927 47.5771C40.7102 47.4803 40.637 47.4571 40.4454 47.0845C40.2262 46.6585 39.9758 46.5174 39.4394 46.5174C38.5497 46.5174 37.8477 45.8153 37.4185 44.4963C37.0887 43.4825 36.7484 43.1137 36.1427 43.1137C35.9445 43.1137 35.6464 43.2094 35.4802 43.3262ZM36.4308 47.4463C36.5806 47.628 36.5714 47.7072 36.3774 47.9021C36.1585 48.1224 36.1269 48.1224 35.9079 47.9021C35.714 47.7072 35.7048 47.628 35.8546 47.4463C35.9545 47.3255 36.0841 47.2265 36.1427 47.2265C36.2012 47.2265 36.3309 47.3255 36.4308 47.4463ZM47.7549 48.02C47.4016 48.3751 47.3921 48.4294 47.4795 49.5738C47.6691 52.0536 48.63 54.1081 50.4611 55.9489C51.7441 57.2388 52.9208 57.9832 54.5526 58.5371L55.6812 58.9202L62.8406 58.9673L70 59.0142V57.8713V56.7285H63.3922C57.2493 56.7285 56.7069 56.7085 55.6827 56.4453C54.2635 56.0804 53.0313 55.3811 52.0252 54.3694C51.1021 53.4416 50.6196 52.6714 50.1552 51.3852C49.5612 49.7403 48.3557 49.9211 59.9133 49.9211H70V48.7865V47.6519H59.0606H48.121L47.7549 48.02ZM31.2052 49.1381C34.5235 49.3741 34.3619 49.2989 34.8739 50.8455C35.1964 51.8196 35.5459 52.1902 36.1427 52.1902C36.7322 52.1902 37.0893 51.8185 37.403 50.8785C37.8581 49.5146 37.6812 49.5989 39.8478 49.7143C40.8982 49.7703 41.8333 49.8631 41.9257 49.9205C42.0999 50.0287 43.6634 55.3134 43.5538 55.4236C43.4996 55.4782 36.7249 55.1069 30.9935 54.7353C29.9073 54.6649 28.7756 54.6059 28.4787 54.6042C28.0725 54.6019 27.8366 54.4985 27.5264 54.1866L27.1141 53.7721V51.3502V48.9283L27.7136 48.9305C28.0434 48.9316 29.6146 49.025 31.2052 49.1381ZM25.7378 60.6293C26.8788 61.1688 28.3328 61.4931 32.1221 62.0535C33.5187 62.2601 34.7408 62.4527 34.8378 62.4816C34.9699 62.521 35.0141 63.1412 35.0141 64.9561C35.0141 67.3384 35.0085 67.3837 34.6678 67.726L34.3216 68.0742H29.3712H24.4209L24.0747 67.726L23.7283 67.378V63.3837V59.3895L24.2212 59.7674C24.4924 59.9753 25.1749 60.3632 25.7378 60.6293Z" fill="white"/>
<path fill-rule="evenodd" clip-rule="evenodd" d="M7.14596 17.3668C6.95551 17.5582 6.79962 17.832 6.79962 17.9751C6.79962 18.411 6.38134 19.8904 6.08058 20.5185C5.39102 21.9581 4.01105 23.1776 2.4989 23.6835C1.52536 24.0093 1.15674 24.36 1.15674 24.9606C1.15674 25.5452 1.5248 25.917 2.33906 26.155C4.60906 26.8185 6.33959 28.9636 6.74785 31.62C7.01166 33.3367 8.84475 33.3367 9.10855 31.62C9.51681 28.9636 11.2473 26.8185 13.5173 26.155C14.3316 25.917 14.6997 25.5452 14.6997 24.9606C14.6997 24.36 14.331 24.0093 13.3575 23.6835C11.8454 23.1776 10.4654 21.9581 9.77582 20.5185C9.47506 19.8904 9.05678 18.411 9.05678 17.9751C9.05678 17.5578 8.42054 17.0186 7.9282 17.0186C7.65339 17.0186 7.36419 17.1472 7.14596 17.3668ZM8.39874 22.6191C8.61868 22.9692 9.21513 23.6393 9.72412 24.108L10.6494 24.9605L9.72412 25.813C9.21513 26.2817 8.61868 26.9518 8.39874 27.3018C8.17881 27.6518 7.96706 27.9381 7.92827 27.9381C7.88947 27.9381 7.67773 27.6518 7.45779 27.3018C7.23786 26.9518 6.64141 26.2817 6.13242 25.813L5.20713 24.9605L6.13242 24.108C6.64141 23.6393 7.23786 22.9692 7.45779 22.6191C7.67773 22.2691 7.88947 21.9828 7.92827 21.9828C7.96706 21.9828 8.17881 22.2691 8.39874 22.6191Z" fill="#DB3138"/>
</svg>
