<svg width="160" height="40" viewBox="0 0 160 40" fill="none" xmlns="http://www.w3.org/2000/svg">
<g clip-path="url(#clip0_2_492)">
<path d="M15.2375 22.7583L7.28367 1.02013H0L12.1593 30.825H18.2644L30.3651 1.02013H23.2508L15.2375 22.7583ZM54.794 15.9228C54.794 21.1372 51.3194 25.3937 45.8302 25.3937C40.5635 25.3937 36.8063 21.079 36.8063 15.8127C36.8063 10.6003 40.2833 6.34344 45.717 6.34344C51.0391 6.34344 54.794 10.6585 54.794 15.9228ZM61.5717 15.8127C61.5717 7.29631 54.9072 0.402954 45.8307 0.402954C36.7533 0.402954 30.0282 7.40794 30.0282 15.9232C30.0282 24.387 36.6974 31.2775 45.717 31.2775C54.8506 31.2775 61.5717 24.2721 61.5717 15.8127ZM91.8299 1.02013H84.7687L77.0936 22.9844L68.6872 1.02013H61.4601L73.7876 30.6029C72.6665 33.1813 71.49 34.0221 69.5866 34.0221C68.1864 34.0221 66.8376 33.5728 65.6081 32.8994L63.3104 37.9428C65.3832 39.0632 67.4552 39.7353 70.3122 39.7353C75.0758 39.7353 77.7111 37.4963 80.0634 31.4418L91.8299 1.02013ZM115.417 21.8629V21.7512C115.417 16.4283 110.542 14.466 106.227 13.1228C102.753 12.0013 99.5613 11.105 99.5613 8.97798V8.86635C99.5613 7.13085 101.071 5.89611 103.706 5.89611C106.172 5.89611 109.197 6.96061 112.054 8.69571L114.744 3.87754C111.607 1.80634 107.573 0.515385 103.874 0.515385C97.9925 0.515385 93.339 3.93415 93.339 9.54014V9.64818C93.339 15.3084 98.2146 17.1005 102.584 18.3321C106.058 19.3982 109.197 20.1824 109.197 22.4796V22.5909C109.197 24.55 107.514 25.7836 104.602 25.7836C101.575 25.7836 98.1045 24.55 94.909 22.1407L91.8834 26.7357C95.5812 29.6497 100.232 31.1627 104.435 31.1627C110.6 31.1635 115.417 28.082 115.417 21.8629Z" fill="white"/>
<path d="M123.356 2.32828C125.677 0.00830097 125.677 0.00830078 127.997 0.00830078H152.125C153.971 0.00830078 154.351 0.0126863 155.591 1.18125L152.602 6.35146H119.334C119.333 6.35146 120.497 5.19207 123.356 2.32828Z" fill="white"/>
<path d="M158.448 4.03427C156.126 1.71389 155.591 1.18164 155.591 1.18164L139.542 28.9213L140.894 31.2612H142.757C145.077 31.2612 145.91 31.2612 147.397 28.9369C148.739 26.8477 159.714 7.62328 159.714 7.62328C160.473 6.05802 159.606 5.19645 158.448 4.03427Z" fill="white"/>
<path d="M126.489 6.35144H119.333C119.472 6.55677 132.334 28.9356 132.334 28.9356C133.363 30.7545 135.061 31.26 137.15 31.26H140.894L126.489 6.35144Z" fill="white"/>
<path d="M119.333 6.35144C119.333 6.35144 126.489 6.35144 132.304 16.4048L126.489 6.35144H119.333Z" fill="white"/>
<path d="M140.894 31.2612L139.542 28.9213L144.618 20.1458C144.619 20.1458 139.47 29.0497 140.894 31.2612Z" fill="white"/>
<path d="M155.591 1.18115L152.602 6.35137H137.32C137.32 6.35137 150.477 6.29635 155.591 1.18115Z" fill="white"/>
</g>
<defs>
<clipPath id="clip0_2_492">
<rect width="160" height="39.744" fill="white"/>
</clipPath>
</defs>
</svg>
