<svg width="24" height="23" viewBox="0 0 24 23" fill="none" xmlns="http://www.w3.org/2000/svg">
<g filter="url(#filter0_d_36519_44)">
<path d="M12 0C9.81276 0.00258035 7.71584 0.872603 6.16923 2.41922C4.62261 3.96584 3.75259 6.06276 3.75001 8.25C3.74739 10.0374 4.33124 11.7763 5.41201 13.2C5.41201 13.2 5.63701 13.4963 5.67376 13.539L12 21L18.3293 13.5353C18.3623 13.4955 18.588 13.2 18.588 13.2L18.5888 13.1978C19.669 11.7747 20.2526 10.0366 20.25 8.25C20.2474 6.06276 19.3774 3.96584 17.8308 2.41922C16.2842 0.872603 14.1873 0.00258035 12 0ZM12 11.25C11.4067 11.25 10.8266 11.0741 10.3333 10.7444C9.83995 10.4148 9.45543 9.94623 9.22837 9.39805C9.00131 8.84987 8.9419 8.24667 9.05765 7.66473C9.17341 7.08279 9.45913 6.54824 9.87869 6.12868C10.2982 5.70912 10.8328 5.4234 11.4147 5.30764C11.9967 5.19189 12.5999 5.2513 13.1481 5.47836C13.6962 5.70542 14.1648 6.08994 14.4944 6.58329C14.8241 7.07664 15 7.65666 15 8.25C14.999 9.04535 14.6826 9.80783 14.1202 10.3702C13.5578 10.9326 12.7954 11.249 12 11.25Z" fill="white"/>
</g>
<defs>
<filter id="filter0_d_36519_44" x="-0.25" y="0" width="24.5" height="29" filterUnits="userSpaceOnUse" color-interpolation-filters="sRGB">
<feFlood flood-opacity="0" result="BackgroundImageFix"/>
<feColorMatrix in="SourceAlpha" type="matrix" values="0 0 0 0 0 0 0 0 0 0 0 0 0 0 0 0 0 0 127 0" result="hardAlpha"/>
<feOffset dy="4"/>
<feGaussianBlur stdDeviation="2"/>
<feComposite in2="hardAlpha" operator="out"/>
<feColorMatrix type="matrix" values="0 0 0 0 0 0 0 0 0 0 0 0 0 0 0 0 0 0 0.25 0"/>
<feBlend mode="normal" in2="BackgroundImageFix" result="effect1_dropShadow_36519_44"/>
<feBlend mode="normal" in="SourceGraphic" in2="effect1_dropShadow_36519_44" result="shape"/>
</filter>
</defs>
</svg>
