<svg width="57" height="71" viewBox="0 0 57 71" fill="none" xmlns="http://www.w3.org/2000/svg">
<path fill-rule="evenodd" clip-rule="evenodd" d="M2.27388 0.179625C1.58116 0.39904 0.399675 1.62845 0.187258 2.35094C-0.0624194 3.20024 -0.0624194 67.1373 0.187258 67.9866C0.416329 68.7657 1.58554 69.9407 2.36082 70.1709C2.8057 70.3029 7.94463 70.3433 24.3062 70.3433H45.6705L51.0711 64.9161L56.4719 59.489V31.2119C56.4719 9.77674 56.4312 2.79857 56.304 2.37193C56.2117 2.06246 55.8617 1.50236 55.5261 1.12721C54.4209 -0.108154 56.8774 -0.00759471 28.1833 0.00871606C10.0846 0.0190699 2.6256 0.0682858 2.27388 0.179625ZM53.8671 2.61177L54.2136 2.95983V30.411V57.862H50.5956C48.1676 57.862 46.7865 57.9188 46.3967 58.0345C45.6214 58.2647 44.4522 59.4396 44.2231 60.2187C44.1079 60.6105 44.0515 61.9983 44.0515 64.4383V68.074H23.5092H2.96674L2.62038 67.7258L2.27388 67.3777V35.1688V2.95983L2.62038 2.61177L2.96674 2.26357H28.2437H53.5207L53.8671 2.61177ZM20.975 4.73147C19.2559 5.17313 18.8881 5.43013 14.7648 9.07098C12.9794 10.6476 11.328 12.0583 11.0952 12.2059C10.8623 12.3537 10.4494 12.4754 10.1778 12.4764C9.55532 12.4788 8.39825 13.0178 7.86319 13.5543C7.63821 13.7801 7.30032 14.2994 7.11232 14.7084C6.77866 15.4345 6.77175 15.5247 6.81578 18.5379C6.86053 21.5992 6.86405 21.6297 7.25388 22.3732C7.7754 23.3679 8.60446 24.1531 9.54812 24.5461C10.0495 24.755 10.3189 24.9506 10.3189 25.1058C10.3189 25.2369 10.5419 25.7921 10.8143 26.3394C12.8896 30.508 18.7546 30.5133 20.8281 26.3482C21.1029 25.7961 21.3279 25.2571 21.3279 25.1506C21.3279 24.99 22.318 24.9568 27.1146 24.9568C31.9113 24.9568 32.9014 24.99 32.9014 25.1506C32.9014 25.2571 33.1244 25.7921 33.3968 26.3394C35.4721 30.508 41.3371 30.5133 43.4106 26.3482C43.6854 25.7961 43.9103 25.2571 43.9103 25.1506C43.9103 24.9995 44.2259 24.9568 45.3407 24.9568C46.1274 24.9568 47.0324 24.8792 47.3519 24.7844C48.1272 24.5542 49.2964 23.3792 49.5255 22.6001C49.6384 22.2159 49.6971 20.9001 49.6971 18.7509C49.6971 15.8503 49.6694 15.4518 49.4501 15.184C49.2649 14.9579 48.2178 14.6001 45.2676 13.7546C43.103 13.1342 41.319 12.6087 41.3031 12.5866C41.2871 12.5645 40.3269 11.2071 39.1696 9.57038C38.0121 7.93348 36.8206 6.34751 36.5218 6.04597C36.223 5.74444 35.5561 5.29653 35.0398 5.05073L34.1011 4.60382L27.8909 4.57701C23.2366 4.55687 21.5039 4.59559 20.975 4.73147ZM25.9855 9.56796V12.3337H20.2391C15.357 12.3337 14.5238 12.3043 14.6993 12.1387C15.9042 11.0016 19.9132 7.5884 20.2526 7.41055C21.1709 6.92959 21.8316 6.82109 23.9037 6.81173L25.9855 6.80223V9.56796ZM34.1011 7.13936C34.968 7.55025 35.0486 7.64003 36.9181 10.2771L38.4263 12.4046L34.3584 12.4479C32.1209 12.4716 29.8299 12.4501 29.267 12.4002L28.2437 12.3095V9.55591V6.80223L30.8196 6.80364C33.2305 6.80492 33.4405 6.82634 34.1011 7.13936ZM42.5862 15.3369L44.5786 15.9112L44.3504 16.3564C43.9967 17.0458 44.0508 18.381 44.4592 19.0452C44.9304 19.8114 45.6963 20.2772 46.6472 20.3758L47.4389 20.4579V21.2245C47.4389 21.8494 47.3748 22.0556 47.0924 22.3393C46.7706 22.6628 46.6454 22.6875 45.3281 22.6875C44.224 22.6875 43.9103 22.6447 43.9103 22.4938C43.9103 22.3872 43.6873 21.8522 43.4149 21.3049C42.8128 20.0956 41.9659 19.2763 40.6895 18.6687C39.8369 18.2627 39.6184 18.2198 38.4059 18.2198C37.1933 18.2198 36.9748 18.2627 36.1222 18.6687C34.8459 19.2763 33.9989 20.0956 33.3968 21.3049C33.1244 21.8522 32.9014 22.3872 32.9014 22.4938C32.9014 22.6543 31.9113 22.6875 27.1146 22.6875C22.318 22.6875 21.3279 22.6543 21.3279 22.4938C21.3279 22.3872 21.1049 21.8522 20.8325 21.3049C20.2303 20.0956 19.3834 19.2763 18.107 18.6687C17.2544 18.2627 17.0359 18.2198 15.8234 18.2198C14.6108 18.2198 14.3924 18.2627 13.5397 18.6687C13.0213 18.9155 12.3156 19.3781 11.9718 19.6965C11.3532 20.2695 10.46 21.7341 10.46 22.1755C10.46 22.478 10.2914 22.4635 9.86188 22.124C9.32738 21.7015 9.04863 20.9794 9.04863 20.0171V19.1625L9.80175 18.8159C11.1849 18.1796 12.1764 16.8126 12.385 15.2546L12.4782 14.5589L26.5358 14.6606L40.5935 14.7625L42.5862 15.3369ZM10.1237 15.1939C10.0291 15.6692 9.40868 16.5887 9.18257 16.5887C9.00981 16.5887 9.01024 15.9995 9.18328 15.5421C9.2904 15.259 9.88093 14.7805 10.1601 14.7505C10.1892 14.7474 10.1728 14.947 10.1237 15.1939ZM16.9525 17.0142V18.1489H18.6462H20.3399V17.0142V15.8795H18.6462H16.9525V17.0142ZM30.502 17.0142V18.1489H32.1957H33.8894V17.0142V15.8795H32.1957H30.502V17.0142ZM47.4389 17.5815C47.4389 18.1083 47.4106 18.1489 47.0437 18.1489C46.6018 18.1489 46.3097 17.9231 46.3097 17.5815C46.3097 17.24 46.6018 17.0142 47.0437 17.0142C47.4106 17.0142 47.4389 17.0548 47.4389 17.5815ZM16.8656 20.5906C18.0785 20.9508 19.2107 22.5109 19.2107 23.8222C19.2107 25.5796 17.5722 27.2262 15.8234 27.2262C14.0745 27.2262 12.436 25.5796 12.436 23.8222C12.436 22.9307 12.7589 22.2115 13.4898 21.4755C14.4799 20.4785 15.5463 20.1989 16.8656 20.5906ZM39.448 20.5906C40.661 20.9508 41.7932 22.5109 41.7932 23.8222C41.7932 25.5796 40.1547 27.2262 38.4059 27.2262C36.657 27.2262 35.0185 25.5796 35.0185 23.8222C35.0185 22.9307 35.3414 22.2115 36.0722 21.4755C37.0623 20.4785 38.1288 20.1989 39.448 20.5906ZM14.6943 23.8222V24.9568H15.8234H16.9525V23.8222V22.6875H15.8234H14.6943V23.8222ZM37.2767 23.8222V24.9568H38.4059H39.535V23.8222V22.6875H38.4059H37.2767V23.8222ZM38.2647 32.5449L36.7878 34.0341H33.4267H30.0657L29.7194 34.3823L29.3729 34.7304V38.5728V42.4152L29.7194 42.7632L30.0657 43.1114H33.8894H37.713L38.0594 42.7632L38.4059 42.4152V39.0377V35.6601L39.8878 34.176C40.7029 33.3597 41.3698 32.6245 41.3698 32.542C41.3698 32.3543 40.0686 31.0556 39.8805 31.0556C39.8041 31.0556 39.077 31.7258 38.2647 32.5449ZM18.0816 36.3035V37.4381H22.5981H27.1146V36.3035V35.1688H22.5981H18.0816V36.3035ZM42.9224 36.3035V37.4381H47.4389H51.9554V36.3035V35.1688H47.4389H42.9224V36.3035ZM33.8487 36.982C33.483 37.3553 33.1906 37.7222 33.1989 37.7975C33.2072 37.8728 33.5587 38.2493 33.9797 38.6339L34.7452 39.3333L35.4464 38.6393L36.1476 37.9452V39.3937V40.8421H33.8894H31.6311V38.5728V36.3035H33.0724H34.5139L33.8487 36.982ZM15.8234 40.8421V41.9768H21.469H27.1146V40.8421V39.7074H21.469H15.8234V40.8421ZM40.6641 40.8421V41.9768H46.3097H51.9554V40.8421V39.7074H46.3097H40.6641V40.8421ZM13.424 43.8915L11.9471 45.3808H8.58597H5.22499L4.87863 45.729L4.53213 46.077V49.9194V53.7618L4.87863 54.1099L5.22499 54.4581H9.04863H12.8723L13.2186 54.1099L13.5651 53.7618V50.3843V47.0067L15.0471 45.5226C15.8622 44.7063 16.5291 43.9711 16.5291 43.8887C16.5291 43.7009 15.2279 42.4023 15.0398 42.4023C14.9634 42.4023 14.2362 43.0724 13.424 43.8915ZM38.2647 43.8915L36.7878 45.3808H33.4267H30.0657L29.7194 45.729L29.3729 46.077V49.9194V53.7618L29.7194 54.1099L30.0657 54.4581H33.8894H37.713L38.0594 54.1099L38.4059 53.7618V50.3843V47.0067L39.8878 45.5226C40.7029 44.7063 41.3698 43.9711 41.3698 43.8887C41.3698 43.7009 40.0686 42.4023 39.8805 42.4023C39.8041 42.4023 39.077 43.0724 38.2647 43.8915ZM18.0816 47.6501V48.7847H22.5981H27.1146V47.6501V46.5154H22.5981H18.0816V47.6501ZM42.9224 47.6501V48.7847H47.4389H51.9554V47.6501V46.5154H47.4389H42.9224V47.6501ZM9.00798 48.3286C8.64228 48.7019 8.34984 49.0688 8.35817 49.1441C8.3665 49.2195 8.71793 49.5959 9.13896 49.9805L9.9045 50.6799L10.6057 49.9859L11.3069 49.2918V50.7403V52.1887H9.04863H6.79038V49.9194V47.6501H8.23171H9.67317L9.00798 48.3286ZM33.8487 48.3286C33.483 48.7019 33.1906 49.0688 33.1989 49.1441C33.2072 49.2195 33.5587 49.5959 33.9797 49.9805L34.7452 50.6799L35.4464 49.9859L36.1476 49.2918V50.7403V52.1887H33.8894H31.6311V49.9194V47.6501H33.0724H34.5139L33.8487 48.3286ZM15.8234 52.1887V53.3234H21.469H27.1146V52.1887V51.0541H21.469H15.8234V52.1887ZM40.6641 52.1887V53.3234H46.3097H51.9554V52.1887V51.0541H46.3097H40.6641V52.1887ZM13.424 55.2381L11.9471 56.7274H8.58597H5.22499L4.87863 57.0756L4.53213 57.4236V61.266V65.1084L4.87863 65.4565L5.22499 65.8047H9.04863H12.8723L13.2186 65.4565L13.5651 65.1084V61.731V58.3533L15.0471 56.8692C15.8622 56.053 16.5291 55.3177 16.5291 55.2353C16.5291 55.0475 15.2279 53.7489 15.0398 53.7489C14.9634 53.7489 14.2362 54.419 13.424 55.2381ZM18.0816 58.9967V60.1314H22.5981H27.1146V58.9967V57.862H22.5981H18.0816V58.9967ZM9.00798 59.6752C8.64228 60.0485 8.34984 60.4155 8.35817 60.4908C8.3665 60.5661 8.71793 60.9425 9.13896 61.3272L9.9045 62.0265L10.6057 61.3326L11.3069 60.6384V62.087V63.5354H9.04863H6.79038V61.266V58.9967H8.23171H9.67317L9.00798 59.6752ZM52.5199 60.1681C52.5199 60.1882 51.1226 61.6077 49.4148 63.3226L46.3097 66.4405V63.6341C46.3097 59.8673 46.0495 60.1314 49.7613 60.1314C51.2786 60.1314 52.5199 60.1478 52.5199 60.1681ZM15.8234 63.5354V64.67H21.469H27.1146V63.5354V62.4007H21.469H15.8234V63.5354Z" fill="white"/>
<path fill-rule="evenodd" clip-rule="evenodd" d="M13.4238 32.5447L11.9469 34.0339H8.58582H5.22484L4.87848 34.3821L4.53198 34.7302V38.5726V42.415L4.87848 42.763L5.22484 43.1112H9.04848H12.8721L13.2185 42.763L13.565 42.415V39.0375V35.6599L15.047 34.1757C15.862 33.3595 16.5289 32.6242 16.5289 32.5418C16.5289 32.354 15.2278 31.0554 15.0396 31.0554C14.9633 31.0554 14.2361 31.7256 13.4238 32.5447ZM9.00783 36.9818C8.64214 37.3551 8.34969 37.722 8.35802 37.7973C8.36635 37.8726 8.71779 38.249 9.13881 38.6337L9.90436 39.3331L10.6055 38.6391L11.3067 37.9449V39.3935V40.8419H9.04848H6.79023V38.5726V36.3032H8.23156H9.67303L9.00783 36.9818Z" fill="#DB3138"/>
<path fill-rule="evenodd" clip-rule="evenodd" d="M13.4238 43.8971L11.9469 45.3864H8.58582H5.22484L4.87848 45.7346L4.53198 46.0826V49.925V53.7674L4.87848 54.1155L5.22484 54.4637H9.04848H12.8721L13.2185 54.1155L13.565 53.7674V50.3899V47.0123L15.047 45.5282C15.862 44.7119 16.5289 43.9767 16.5289 43.8943C16.5289 43.7065 15.2278 42.4079 15.0396 42.4079C14.9633 42.4079 14.2361 43.078 13.4238 43.8971ZM9.00783 48.3342C8.64214 48.7075 8.34969 49.0744 8.35802 49.1497C8.36635 49.2251 8.71779 49.6015 9.13881 49.9861L9.90436 50.6855L10.6055 49.9915L11.3067 49.2974V50.7459V52.1943H9.04848H6.79023V49.925V47.6557H8.23156H9.67303L9.00783 48.3342Z" fill="#DB3138"/>
<path fill-rule="evenodd" clip-rule="evenodd" d="M13.4241 55.2439L11.9472 56.7331H8.58607H5.22509L4.87873 57.0813L4.53223 57.4294V61.2718V65.1142L4.87873 65.4622L5.22509 65.8104H9.04872H12.8724L13.2187 65.4622L13.5652 65.1142V61.7367V58.3591L15.0472 56.875C15.8623 56.0587 16.5292 55.3235 16.5292 55.241C16.5292 55.0533 15.228 53.7546 15.0399 53.7546C14.9635 53.7546 14.2363 54.4248 13.4241 55.2439ZM9.00799 59.6811C8.6423 60.0544 8.34985 60.4213 8.35818 60.4966C8.36651 60.5719 8.71795 60.9483 9.13897 61.333L9.90452 62.0324L10.6057 61.3384L11.3069 60.6443V62.0928V63.5412H9.04864H6.79039V61.2719V59.0025H8.23172H9.67319L9.00799 59.6811Z" fill="#DB3138"/>
<path fill-rule="evenodd" clip-rule="evenodd" d="M38.2363 43.8971L36.7594 45.3864H33.3983H30.0373L29.691 45.7346L29.3445 46.0826V49.925V53.7674L29.691 54.1155L30.0373 54.4637H33.861H37.6846L38.031 54.1155L38.3775 53.7674V50.3899V47.0123L39.8595 45.5282C40.6745 44.7119 41.3414 43.9767 41.3414 43.8943C41.3414 43.7065 40.0403 42.4079 39.8521 42.4079C39.7758 42.4079 39.0486 43.078 38.2363 43.8971ZM33.8203 48.3342C33.4546 48.7075 33.1622 49.0744 33.1705 49.1497C33.1788 49.2251 33.5303 49.6015 33.9513 49.9861L34.7169 50.6855L35.418 49.9915L36.1192 49.2974V50.7459V52.1943H33.861H31.6027V49.925V47.6557H33.0441H34.4855L33.8203 48.3342Z" fill="#DB3138"/>
<path fill-rule="evenodd" clip-rule="evenodd" d="M38.2363 32.5508L36.7594 34.04H33.3983H30.0373L29.691 34.3882L29.3445 34.7363V38.5787V42.4211L29.691 42.7691L30.0373 43.1173H33.861H37.6846L38.031 42.7691L38.3775 42.4211V39.0436V35.666L39.8595 34.1818C40.6745 33.3656 41.3414 32.6303 41.3414 32.5479C41.3414 32.3601 40.0403 31.0615 39.8521 31.0615C39.7758 31.0615 39.0486 31.7317 38.2363 32.5508ZM33.8203 36.9879C33.4546 37.3612 33.1622 37.7281 33.1705 37.8034C33.1788 37.8787 33.5303 38.2551 33.9513 38.6398L34.7169 39.3392L35.418 38.6452L36.1192 37.9511V39.3996V40.848H33.861H31.6027V38.5787V36.3093H33.0441H34.4855L33.8203 36.9879Z" fill="#DB3138"/>
</svg>
