<svg width="19" height="16" viewBox="0 0 19 16" fill="none" xmlns="http://www.w3.org/2000/svg">
<path d="M5.97873e-09 4.392L9.132 9.14143C9.2236 9.18906 9.32533 9.21393 9.42857 9.21393C9.53182 9.21393 9.63354 9.18906 9.72514 9.14143L18.8571 4.39286V12.6429C18.8572 13.3544 18.585 14.039 18.0963 14.5562C17.6076 15.0734 16.9395 15.384 16.2291 15.4243L16.0714 15.4286H2.78571C2.07417 15.4286 1.38958 15.1564 0.872374 14.6677C0.355172 14.179 0.0445703 13.511 0.00428582 12.8006L5.97873e-09 12.6429V4.392ZM2.78571 5.97873e-09H16.0714C16.783 -4.65829e-05 17.4676 0.272189 17.9848 0.760861C18.502 1.24953 18.8126 1.91759 18.8529 2.628L18.8571 2.78571V2.94343L9.42857 7.84629L5.97873e-09 2.94343V2.78571C-4.65829e-05 2.07417 0.272189 1.38958 0.760861 0.872374C1.24953 0.355172 1.91759 0.0445703 2.628 0.00428582L2.78571 5.97873e-09H16.0714H2.78571Z" fill="white"/>
</svg>
