<svg width="70" height="57" viewBox="0 0 70 57" fill="none" xmlns="http://www.w3.org/2000/svg">
<path fill-rule="evenodd" clip-rule="evenodd" d="M51.7938 2.48135C48.5475 4.52258 47.5886 5.05881 46.8255 5.25991L45.8799 5.50923L40.7897 4.88961C35.08 4.19469 34.2524 4.18604 31.8589 4.79615C31.1034 4.98875 29.9927 5.3918 29.3908 5.69175C28.7889 5.99171 25.4504 8.07719 21.9718 10.326C15.4775 14.5248 15.1352 14.7903 14.885 15.8246C14.8327 16.0413 14.5568 16.3689 14.2425 16.5877C13.9395 16.7986 13.4993 17.2632 13.2642 17.6199C12.4967 18.7841 12.4194 19.3084 12.4194 23.342V27.0035H6.20968H0V28.1381V29.2727H18.1468C28.1276 29.2727 36.2692 29.3204 36.2393 29.379C35.2089 31.395 34.6016 33.0522 34.1992 34.9455C33.8453 36.6106 33.8508 40.2086 34.2098 41.8891C35.8159 49.4067 41.5808 55.0298 48.9613 56.2774C58.937 57.9638 68.3048 51.0465 69.7978 40.8916C70.3664 37.0247 69.6829 33.3921 67.6317 29.379C67.6018 29.3204 68.1224 29.2727 68.7887 29.2727H70V28.1381V27.0035H68.0288H66.0578L64.8592 25.7541C61.2511 21.9928 56.2231 19.974 51.1593 20.2533C50.2278 20.3046 49.2594 20.3839 49.0071 20.4293C48.5745 20.5073 48.5484 20.4881 48.5484 20.0929C48.5484 19.7223 48.6178 19.6531 49.1482 19.4955C50.1941 19.1846 51.8292 18.2427 52.9234 17.3207C53.5055 16.8301 55.8553 15.2566 58.1452 13.8239C60.435 12.3912 62.3864 11.1479 62.4816 11.061C62.6163 10.9384 62.5274 10.6927 62.0845 9.96185L61.5139 9.02058L59.8648 10.0523C58.9578 10.6199 56.9773 11.8584 55.4637 12.8047C53.9501 13.7509 52.3685 14.8246 51.9489 15.1907C50.6964 16.2834 49.4554 17.0227 48.1538 17.4514C47.0279 17.8223 46.7606 17.8549 44.9496 17.8431C43.2929 17.8322 42.6204 17.7555 40.7863 17.3675C38.9345 16.9758 38.1655 16.8891 35.7762 16.8026C34.2238 16.7463 32.786 16.6296 32.5812 16.5431C31.8698 16.2428 30.7661 15.0622 30.7661 14.6012C30.7661 14.5583 32.4808 14.5232 34.5766 14.5232H38.3871V13.3887V12.2541H33.7243H29.0614L24.1122 15.0132C18.8992 17.9194 18.2566 18.1872 17.509 17.7656C17.0076 17.4828 16.8158 16.8754 17.0813 16.4109C17.278 16.0668 28.7439 8.53726 30.2016 7.79496C31.5627 7.10188 33.6566 6.5848 35.1318 6.57729C35.5638 6.57516 38.1218 6.84377 40.8161 7.17435C47.6016 8.00699 47.0708 8.12796 53.0786 4.37962C55.0502 3.14947 56.7418 2.07134 56.8377 1.98355C56.9738 1.85918 56.8929 1.62957 56.4688 0.93663C56.1701 0.448339 55.9011 0.0271302 55.8711 0.000467813C55.8411 -0.0261946 54.0063 1.09022 51.7938 2.48135ZM13.0544 2.21245C12.6759 2.42816 12.6131 2.53666 12.2686 3.56855C11.9134 4.63235 11.3401 5.26048 10.6145 5.38117C9.7331 5.52753 9.34613 5.73657 9.17141 6.16076C8.82875 6.99183 9.32425 7.60719 10.4818 7.7883C11.3091 7.91778 11.8718 8.51853 12.2683 9.69579C12.6284 10.7646 12.9476 11.1195 13.5484 11.1195C14.1444 11.1195 14.4951 10.7488 14.816 9.78003C14.9825 9.27714 15.2524 8.69496 15.4157 8.48634C15.7493 8.06031 16.461 7.71583 17.0079 7.71583C17.5143 7.71583 18.0645 7.125 18.0645 6.58126C18.0645 5.99795 17.5157 5.44669 16.9349 5.44669C15.9493 5.44669 15.2854 4.79998 14.816 3.38248C14.4118 2.16197 13.8258 1.77281 13.0544 2.21245ZM13.8256 6.36243C13.9602 6.52538 13.9536 6.63033 13.7942 6.85894C13.593 7.14769 13.5913 7.14769 13.3391 6.86759C13.1321 6.63756 13.1184 6.5475 13.2639 6.37122C13.4861 6.10204 13.6089 6.10006 13.8256 6.36243ZM5.12002 13.5599C4.93867 13.6479 4.70778 13.9873 4.57173 14.3658C3.90561 16.2196 3.5995 16.5663 2.4356 16.7847C1.75748 16.9121 1.12903 17.4346 1.12903 17.8709C1.12903 18.3182 1.5623 18.9166 1.94306 18.995C3.49788 19.3152 3.88034 19.6394 4.36413 21.047C4.71653 22.0721 5.06724 22.4652 5.62935 22.4652C6.24129 22.4652 6.58946 22.1017 6.91278 21.1257C7.07931 20.6228 7.34915 20.0407 7.51244 19.832C7.84607 19.406 8.55778 19.0615 9.10466 19.0615C9.61103 19.0615 10.1613 18.4707 10.1613 17.927C10.1613 17.3436 9.61244 16.7924 9.03169 16.7924C8.04605 16.7924 7.38218 16.1457 6.91278 14.7282C6.5052 13.4973 5.96919 13.148 5.12002 13.5599ZM28.6169 15.4895C28.6527 15.5975 28.5043 15.6563 28.2022 15.6533C27.7561 15.649 27.7461 15.638 28.0085 15.4387C28.3106 15.2091 28.5299 15.2274 28.6169 15.4895ZM5.92234 17.7081C6.05698 17.8711 6.05034 17.976 5.89101 18.2046C5.68976 18.4934 5.68806 18.4934 5.43587 18.2133C5.22883 17.9833 5.21514 17.8932 5.36065 17.7169C5.58292 17.4477 5.70571 17.4458 5.92234 17.7081ZM31.429 18.451L32.4841 18.975L35.4708 19.0783C38.0228 19.1666 38.7556 19.2456 40.504 19.6209C41.8834 19.9169 43.1599 20.0893 44.4204 20.1499L46.2903 20.2398V20.699C46.2903 21.0818 46.2258 21.1742 45.9022 21.2549C45.1071 21.4532 42.6515 22.749 41.4784 23.5895C40.8111 24.0675 39.7076 25.0312 39.0261 25.7311L37.787 27.0035H26.2322H14.6774V23.38C14.6774 20.3138 14.7127 19.6868 14.907 19.3026C15.2202 18.6837 15.2202 18.6837 15.4634 19.0325C15.8393 19.5719 16.8707 20.0753 17.7673 20.157C18.8962 20.2598 20.134 19.86 22.0161 18.7843L23.498 17.9375L26.936 17.9322L30.3739 17.927L31.429 18.451ZM35 21.3307V22.4652H36.129H37.2581V21.3307V20.1961H36.129H35V21.3307ZM54.4085 22.6739C60.9931 23.7472 66.0574 28.6925 67.4838 35.4419C67.716 36.5403 67.716 40.1581 67.4838 41.2565C66.1013 47.7988 61.3389 52.5845 54.8286 53.9738C53.7356 54.2071 50.1354 54.2071 49.0423 53.9738C44.1371 52.927 40.2017 49.9998 37.995 45.7564C35.5515 41.058 35.5154 35.874 37.8927 31.1172C40.9194 25.0613 47.7212 21.584 54.4085 22.6739ZM20.3226 24.7344V25.8689H21.4516H22.5806V24.7344V23.5998H21.4516H20.3226V24.7344Z" fill="white"/>
<path fill-rule="evenodd" clip-rule="evenodd" d="M41.0657 30.763C41.6685 29.5401 42.8221 28.592 44.1034 28.2667C44.3363 28.2075 46.4638 28.1707 48.8312 28.1847C52.9899 28.2094 53.1573 28.221 53.7751 28.5303C54.7807 29.0338 55.3748 29.6062 55.8977 30.5751L56.3816 31.4721L56.4283 34.6009L56.4751 37.7296L56.9793 37.2652C57.8616 36.4532 58.6355 36.161 59.9099 36.1586C61.2229 36.1561 61.9997 36.4462 62.922 37.2835C64.1648 38.4119 64.5313 39.9173 64.2206 42.6179C63.8252 46.0545 63.2652 47.2354 61.6161 48.1097L60.8978 48.4907H52.43H43.9623L43.0696 48.0044C42.1054 47.4789 41.5358 46.8819 41.0348 45.8714C40.7174 45.2309 40.7163 45.2055 40.7163 38.3505V31.4721L41.0657 30.763ZM61.8836 43.1017C62.3036 40.2945 62.0665 39.2029 60.9153 38.6429C60.2693 38.3286 59.6944 38.2854 59.1366 38.509C58.5859 38.7298 58.288 39.0664 57.8332 39.9817C57.0945 41.4681 56.7606 41.721 54.1744 42.7534C53.3702 43.0744 52.5703 43.4699 52.3969 43.6322C51.6928 44.2908 51.9031 45.6228 52.7834 46.0803C53.1547 46.2733 53.7494 46.3 56.8725 46.2639L60.5269 46.2218L60.9561 45.8084C61.4801 45.3037 61.6116 44.9199 61.8836 43.1017ZM53.152 30.771C53.3662 30.9318 53.6724 31.2394 53.8324 31.4547C54.1087 31.8263 54.1255 32.0596 54.1646 36.0723L54.2057 40.2985L53.0356 40.7681C51.4689 41.3969 50.9079 41.7674 50.4004 42.5085C49.709 43.5184 49.4972 45.0122 49.8979 46.0518C49.9916 46.2952 49.8493 46.3062 47.1657 46.2645C44.0647 46.2164 43.9692 46.1915 43.2652 45.2444C42.9834 44.8653 42.9729 44.6587 42.9322 38.7294C42.9091 35.3614 42.9275 32.4004 42.9731 32.1491C43.0762 31.5812 43.6686 30.8571 44.2373 30.6039C44.5724 30.4547 45.5646 30.4197 48.7152 30.4454C52.5553 30.4768 52.7825 30.4936 53.152 30.771Z" fill="#DB3138"/>
</svg>
